<?xml version="1.0" encoding="utf-8"?><!DOCTYPE svg  PUBLIC '-//W3C//DTD SVG 1.1//EN'  'http://www.w3.org/Graphics/SVG/1.1/DTD/svg11.dtd'><svg viewBox="0 0 512 512" xmlns="http://www.w3.org/2000/svg" xmlns:xlink="http://www.w3.org/1999/xlink"><style>:root>svg{display:none}:root>svg:target{display:block}</style><svg viewBox="0 0 20 20" id="biography" xmlns="http://www.w3.org/2000/svg"><path d="M8.207 12.958c1.2-.097 2.405-.097 3.605 0 .653.038 1.303.12 1.946.245 1.392.282 2.3.741 2.69 1.483a2.052 2.052 0 010 1.846c-.39.741-1.262 1.23-2.704 1.483a13.98 13.98 0 01-1.947.252c-.605.066-1.21.066-1.824.066H8.87a5.27 5.27 0 00-.67-.044 13.344 13.344 0 01-1.947-.245c-1.391-.267-2.3-.741-2.689-1.483a2.033 2.033 0 01-.23-.934 2.01 2.01 0 01.223-.941c.382-.742 1.29-1.224 2.696-1.483a14.214 14.214 0 011.954-.245zm1.795-11.291c2.417 0 4.376 2.015 4.376 4.5s-1.959 4.5-4.376 4.5c-2.417 0-4.376-2.015-4.376-4.5s1.96-4.5 4.376-4.5z"/></svg><svg viewBox="0 0 20 20" id="contacts" xmlns="http://www.w3.org/2000/svg"><path d="M14.116 2.5a4.214 4.214 0 014.218 4.208v6.584a4.215 4.215 0 01-4.218 4.208H5.884a4.214 4.214 0 01-4.217-4.208V6.708A4.209 4.209 0 015.884 2.5h8.232zm.943 4.333A.633.633 0 0014.59 7l-3.757 3c-.484.4-1.176.4-1.667 0l-3.75-3a.634.634 0 00-.833.058.637.637 0 00-.06.834l.11.108 3.791 2.958a2.62 2.62 0 003.258 0l3.759-3.008.067-.067c.199-.241.199-.591-.01-.833a.7.7 0 00-.44-.217z"/></svg><svg viewBox="0 0 20 20" id="education" xmlns="http://www.w3.org/2000/svg"><path d="M12.558 1.667c2.259 0 4.084.891 4.109 3.158v12.65a.87.87 0 01-.1.408.863.863 0 01-.517.417.832.832 0 01-.658-.083l-5.4-2.7-5.409 2.7a.886.886 0 01-.408.108.846.846 0 01-.842-.85V4.825c0-2.267 1.834-3.158 4.084-3.158h5.141zm.567 5.033H6.85a.653.653 0 00-.65.658c0 .366.292.659.65.659h6.275c.358 0 .65-.293.65-.659a.653.653 0 00-.65-.658z"/></svg><svg viewBox="0 0 512 512" id="github" xmlns="http://www.w3.org/2000/svg"><path d="M218.7 445.5c-6.6.7-12.2 1.4-17.8 2-29.1 2.9-54.5-5-73.7-27.7-6-7.1-9.4-16.3-14.5-24.2-7.9-12.4-16-24.7-24.7-36.6-3-4.1-8.2-6.5-12.2-10-1.3-1.1-1.7-3.2-2.6-4.9 1.8-.7 3.5-1.9 5.3-2.1 23-2.1 39.2 8.5 50.5 27.6 14.1 23.8 34.5 36.8 62.2 36.8 8 0 16-2.7 23.9-4.5 1.5-.4 3.3-2.7 3.5-4.4 1.4-10.4 2.7-20.8 7.5-30.3 1.8-3.5 3.9-6.8 6-10.4-8.1-1.6-15.9-2.8-23.6-4.7-35.5-9-64.8-26.8-81.8-60.6-6.6-13.2-10.3-27.4-10.8-42.2-.8-22.8-.5-45.7 4.1-68.2 3.3-15.8 9.3-30.5 21.3-41.9 2.6-2.5 3.1-4.7 1.7-8.5-6.7-18.7-7.4-37.7-1.7-56.8 1.2-4.1 2.3-8.2 3.5-12.5 27.4 5.2 43.7 23.7 59 44.2 15.8-11.7 34.5-12.7 52.7-13.9 21.6-1.4 43.3-1.1 64.8 2.4 11.2 1.8 18.1 4.1 29 10.6 9.4-9.7 18.2-19.5 27.9-28.4 7.7-7.1 17.3-11.6 27.7-14 2.9-.7 4.4-.4 5.6 2.8 8.1 22.1 9.3 44.1.4 66.2-1.2 3-1.1 5.1 1.4 7.5 14.4 13.7 21 31.4 23.2 50.5 2 17.7 3.1 35.5 3.1 53.3 0 25.3-7.5 48.5-23.4 68.4-11.2 14.1-25.7 24.2-42.1 31.8-15.9 7.3-32.5 11.5-49.7 13.7-.4.1-.8.4-1.5.7 11.8 16.9 13.7 35.9 13.5 55.6-.3 28.7-.2 57.3 0 86 0 4.5-1.3 5.6-5.7 5.6-35.5-.2-71-.2-106.5 0-4.4 0-5.8-1.4-5.8-5.7.2-15.5.1-31 .1-46.5.2-2.3.2-4.3.2-6.7z"/></svg><svg id="moon" viewBox="0 0 48 48" xmlns="http://www.w3.org/2000/svg"><defs><style>.evi-primary{fill:#ffb500;stroke:#fff;stroke-linecap:round;stroke-width:0;fill-rule:evenodd}</style></defs><path class="evi-primary" d="M20.848 27.134A17.853 17.853 0 0041 30.675 17.849 17.849 0 1117.3 7a17.815 17.815 0 003.548 20.134z"/></svg><svg viewBox="0 0 20 20" id="skills" xmlns="http://www.w3.org/2000/svg"><path d="M13.891 1.667c2.834 0 4.434 1.608 4.443 4.442v7.783c0 2.833-1.609 4.442-4.443 4.442H6.11c-2.834 0-4.442-1.609-4.442-4.442V6.109c0-2.834 1.608-4.442 4.442-4.442h7.782zm-3.474 3.442a.7.7 0 00-1.067.658v8.492a.702.702 0 00.691.625c.36 0 .659-.267.692-.625V5.767a.68.68 0 00-.316-.658zM6.525 7.842a.686.686 0 00-.733 0 .7.7 0 00-.325.658v5.759a.688.688 0 00.69.625c.36 0 .66-.267.693-.625V8.5a.702.702 0 00-.325-.658zm7.716 3.025a.699.699 0 00-.74 0 .671.671 0 00-.317.658v2.734a.689.689 0 00.691.625c.35 0 .65-.267.692-.625v-2.734a.695.695 0 00-.326-.658z"/></svg><svg viewBox="0 0 96.012 96.012" id="sun" xmlns="http://www.w3.org/2000/svg"><defs><clipPath id="gb" clipPathUnits="userSpaceOnUse"><path d="M0 500h500V0H0z"/></clipPath><clipPath id="gc" clipPathUnits="userSpaceOnUse"><path d="M48.512 427.243h27.759v-28.228H48.512z"/></clipPath><clipPath id="gd" clipPathUnits="userSpaceOnUse"><path d="M51.534 422.288h21.289v-20.241H51.534z"/></clipPath><clipPath id="ge" clipPathUnits="userSpaceOnUse"><path d="M61.9 439.652h26.965v-32.161H61.901z"/></clipPath><clipPath id="gf" clipPathUnits="userSpaceOnUse"><path d="M68.074 439.682c-11.501 0-20.822-9.321-20.822-20.822 0-11.5 9.321-20.822 20.822-20.822 11.5 0 20.822 9.322 20.822 20.822 0 11.501-9.321 20.823-20.82 20.822h-.002"/></clipPath><clipPath id="gg" clipPathUnits="userSpaceOnUse"><path d="M51.51 422.292h21.32v-20.27H51.51z"/></clipPath><clipPath id="gh" clipPathUnits="userSpaceOnUse"><path d="M59.15 410.494c-3.725 3.518-5.087 8.318-4.451 11.798a4.498 4.498 0 01-1.559-1.067c-2.798-2.961-2.112-10.155 2.973-14.96 5.085-4.805 12.644-5.398 15.442-2.438.759.803 1.172 1.853 1.275 3.052-3.485-1.465-9.441-.388-13.68 3.615"/></clipPath><clipPath id="ga" clipPathUnits="userSpaceOnUse"><path d="M-32768 32767h65535v-65534h-65535z"/></clipPath><clipPath id="gj" clipPathUnits="userSpaceOnUse"><path d="M61.892 439.682h27.004v-32.209H61.892z"/></clipPath><clipPath id="gk" clipPathUnits="userSpaceOnUse"><path d="M63.517 445.968h9.117v-2.733h-9.117z"/></clipPath><clipPath id="gl" clipPathUnits="userSpaceOnUse"><path d="M63.517 394.488h9.117v-2.734h-9.117z"/></clipPath><clipPath id="gm" clipPathUnits="userSpaceOnUse"><path d="M92.447 423.418h2.737V414.3h-2.737z"/></clipPath><clipPath id="gn" clipPathUnits="userSpaceOnUse"><path d="M40.966 423.418H43.7V414.3h-2.733z"/></clipPath><clipPath id="go" clipPathUnits="userSpaceOnUse"><path d="M82.085 440.286h7.412v-7.411h-7.412z"/></clipPath><clipPath id="gp" clipPathUnits="userSpaceOnUse"><path d="M46.649 404.849h7.415v-7.416H46.65z"/></clipPath><clipPath id="gq" clipPathUnits="userSpaceOnUse"><path d="M46.649 440.286h7.411v-7.411H46.65z"/></clipPath><clipPath id="gr" clipPathUnits="userSpaceOnUse"><path d="M82.085 404.849h7.412v-7.416h-7.412z"/></clipPath><clipPath id="gs" clipPathUnits="userSpaceOnUse"><path d="M63.517 445.968h9.117v-2.733h-9.117z"/></clipPath><clipPath id="gt" clipPathUnits="userSpaceOnUse"><path d="M72.634 443.235a25.052 25.052 0 01-9.117.004c.003.195.068.417.207.658.035.066.083.148.134.244.039.064.078.133.118.207.228.411.553.987.909 1.62a5.958 5.958 0 013.188-.919 5.99 5.99 0 013.193.919c.116-.212.234-.416.342-.61.069-.122.134-.243.199-.356l.619-1.105c.139-.241.204-.467.208-.662"/></clipPath><clipPath id="gu" clipPathUnits="userSpaceOnUse"><path d="M63.517 394.488h9.117v-2.734h-9.117z"/></clipPath><clipPath id="gv" clipPathUnits="userSpaceOnUse"><path d="M72.634 394.488a1.413 1.413 0 00-.208-.663l-.121-.216c-.022-.039-.048-.083-.069-.126-.04-.069-.082-.148-.126-.226-.021-.039-.048-.082-.07-.126l-.199-.354-.233-.416c-.052-.087-.1-.178-.151-.269a2.734 2.734 0 01-.101-.181c-.031-.052-.06-.105-.09-.157a5.993 5.993 0 01-6.381 0l-.091.157c-.477.848-.893 1.585-1.07 1.914-.139.243-.204.464-.207.659a24.963 24.963 0 014.556-.416c1.559 0 3.083.142 4.561.42"/></clipPath><clipPath id="gw" clipPathUnits="userSpaceOnUse"><path d="M92.447 423.418h2.737V414.3h-2.737z"/></clipPath><clipPath id="gx" clipPathUnits="userSpaceOnUse"><path d="M94.261 418.861c0-1.174.343-2.265.918-3.193l-.155-.09c-.173-.095-.343-.191-.507-.282a15.015 15.015 0 01-.36-.204c-.22-.125-.425-.238-.593-.333a4.311 4.311 0 01-.208-.116c-.096-.053-.177-.1-.242-.135-.248-.138-.473-.203-.667-.208a24.73 24.73 0 01.419 4.561c0 1.56-.142 3.08-.415 4.557.195-.004.415-.069.663-.208l1.103-.62c.114-.064.235-.129.356-.198.195-.108.398-.225.611-.342a5.976 5.976 0 01-.923-3.189"/></clipPath><clipPath id="gy" clipPathUnits="userSpaceOnUse"><path d="M40.966 423.418H43.7V414.3h-2.733z"/></clipPath><clipPath id="gz" clipPathUnits="userSpaceOnUse"><path d="M43.699 414.3c-.195.005-.42.07-.662.208l-.244.135c-.059.034-.134.073-.208.116-.068.039-.142.078-.22.126-.048.026-.099.057-.152.082-.359.203-.788.442-1.247.701a5.999 5.999 0 010 6.382c.213.116.416.233.611.342.125.068.242.134.355.198l.416.235c.044.021.082.047.125.069l.564.316c.242.139.463.204.658.208a25.03 25.03 0 01.004-9.118"/></clipPath><clipPath id="gA" clipPathUnits="userSpaceOnUse"><path d="M82.085 440.286h7.412v-7.411h-7.412z"/></clipPath><clipPath id="gB" clipPathUnits="userSpaceOnUse"><path d="M89.497 435.772c-.282-1.014-.533-1.901-.641-2.283-.078-.269-.186-.472-.33-.614a24.746 24.746 0 01-6.441 6.44c.144.139.347.247.616.325.048.013.103.03.169.047.06.018.134.035.207.057.373.108.892.256 1.482.421.138.038.281.081.425.121v-.005a5.995 5.995 0 014.513-4.509"/></clipPath><clipPath id="gC" clipPathUnits="userSpaceOnUse"><path d="M46.649 404.849h7.415v-7.416H46.65z"/></clipPath><clipPath id="gD" clipPathUnits="userSpaceOnUse"><path d="M54.064 398.403c-.137-.134-.341-.246-.614-.324-.1-.026-.23-.066-.39-.114a60.534 60.534 0 01-.832-.229c-.108-.03-.222-.065-.338-.095a31.483 31.483 0 00-.727-.208 6.026 6.026 0 01-1.607 2.911 5.973 5.973 0 01-2.907 1.603c.048.165.092.321.134.475.108.387.208.746.294 1.049.092.329.17.594.217.763.079.267.186.472.325.615a24.953 24.953 0 016.445-6.446"/></clipPath><clipPath id="gE" clipPathUnits="userSpaceOnUse"><path d="M46.649 440.286h7.411v-7.411H46.65z"/></clipPath><clipPath id="gF" clipPathUnits="userSpaceOnUse"><path d="M54.061 439.315a24.75 24.75 0 01-6.442-6.44c-.142.142-.252.345-.328.614-.075.26-.214.762-.386 1.378-.044.151-.088.311-.139.48-.035.139-.078.281-.117.425a6 6 0 014.514 4.514c.142-.04.285-.083.424-.121.831-.235 1.533-.434 1.859-.525.267-.078.471-.186.615-.325"/></clipPath><clipPath id="gG" clipPathUnits="userSpaceOnUse"><path d="M82.085 404.849h7.412v-7.416h-7.412z"/></clipPath><clipPath id="gH" clipPathUnits="userSpaceOnUse"><path d="M89.497 401.947a5.982 5.982 0 01-4.513-4.509v-.005c-.144.039-.287.083-.425.121-.542.152-1.023.291-1.386.39-.074.021-.144.044-.203.056l-.269.079c-.269.078-.472.186-.616.33a24.715 24.715 0 016.441 6.44c.144-.143.252-.347.33-.615.108-.386.359-1.275.641-2.287"/></clipPath><mask id="gi" height="1" width="1" y="0" x="0" maskUnits="userSpaceOnUse"><g clip-path="url(#ga)"><path d="M-32768 32767h65535v-65534h-65535z"/></g></mask></defs><g clip-path="url(#gb)" transform="matrix(1.33333 0 0 -1.33333 -42.758 606.488)"><path d="M88.865 418.86c0-11.482-9.308-20.791-20.79-20.791-11.484 0-20.793 9.309-20.793 20.79 0 11.484 9.31 20.793 20.792 20.793 11.483 0 20.791-9.31 20.791-20.792"/><g clip-path="url(#gc)" opacity=".3"><path d="M66.353 399.015c-4.347 0-8.947 1.893-12.303 5.064-5.878 5.552-7.35 14.716-3.093 19.225a7.553 7.553 0 002.591 1.78l5.156 2.16-1.003-5.5c-.425-2.336.501-6.159 3.544-9.034 2.658-2.51 5.945-3.406 8.134-3.406.882 0 1.666.135 2.267.388l4.624 1.945-.426-4.999c-.164-1.91-.887-3.596-2.09-4.87-1.676-1.776-4.304-2.753-7.4-2.753"/></g><g clip-path="url(#gd)" opacity=".3"><path d="M59.164 410.506c-3.72 3.514-5.08 8.306-4.445 11.781a4.53 4.53 0 01-1.557-1.065c-2.792-2.957-2.108-10.142 2.97-14.94 5.077-4.796 12.626-5.389 15.419-2.433.758.803 1.17 1.85 1.272 3.048-3.481-1.464-9.427-.389-13.66 3.61"/></g><g><g clip-path="url(#ge)" opacity=".1"><path d="M63.624 438.79c12.854 0 23.274-10.42 23.274-23.273a23.25 23.25 0 00-1.42-8.026 20.697 20.697 0 013.388 11.369c0 11.484-9.309 20.792-20.792 20.792-2.15 0-4.223-.326-6.173-.932.57.043 1.142.07 1.723.07"/></g></g><g><path d="M75.498 393.36c.042.012.083.022.125.035l-.306-.556c.073.172.13.346.18.52m-14.912.019l.073-.021c.027-.09.054-.18.085-.268zm40.268 28.97l-.22.123c-.336.19-1.558.876-2.833 1.589l-1.713.959.052.058s-2.56 1.775-3.373 4.346c-.701 2.22-.451 4.793-.37 5.458.007.023.014.046.019.07l1.29 4.575c.26.897.8 2.76-.704 4.264a3.514 3.514 0 01-2.508 1.018c-.652 0-1.195-.156-1.72-.307l-4.59-1.295a117.252 117.252 0 01-1.016-.283c-1.086-.154-2.59-.21-3.97.29-2.497.906-4.608 3.074-4.67 3.138l-.064.113c-.061.114-.13.235-.2.356l-.351.629c-.895 1.599-1.981 3.53-2.223 3.96l-.117.212c-.411.746-1.373 2.495-3.498 2.495-2.122 0-3.057-1.693-3.505-2.506l-.107-.192c-.248-.44-1.327-2.371-2.221-3.965l-.681-1.214c-.477-.467-2.37-2.232-4.56-3.025-1.422-.516-2.98-.442-4.074-.277l-.613.173c-.09.024-.182.05-.273.078l-1.097.309c-1.468.412-2.925.82-3.338.939l-.235.068c-.524.149-1.067.304-1.716.304a3.52 3.52 0 01-2.51-1.02c-1.494-1.494-.966-3.336-.713-4.221l.067-.233c.087-.32.375-1.34.702-2.501l.564-2.003c.087-.733.31-3.237-.375-5.407-.812-2.571-3.373-4.346-3.373-4.346l.05-.056-4.775-2.675c-.74-.411-2.472-1.374-2.472-3.485 0-2.124 1.747-3.087 2.494-3.498l.206-.113c.438-.247 2.369-1.332 3.954-2.22l.573-.322c.286-.206 2.582-1.916 3.343-4.326.75-2.375.412-5.155.356-5.566a1743.99 1743.99 0 01-1.247-4.423l-.064-.231c-.256-.887-.786-2.733.694-4.21a3.513 3.513 0 012.529-1.041c.659 0 1.208.16 1.739.315l.21.06 4.364 1.224c.257.072.508.143.744.212l.455.128c1.075.139 2.51.17 3.832-.31 2.129-.771 3.974-2.458 4.514-2.981.105-.19.219-.392.344-.615l2.706-4.83c.45-.813 1.386-2.507 3.509-2.507 2.125 0 3.054 1.687 3.502 2.498l.105.19c.256.453 1.409 2.504 2.32 4.134l.024.04.03.06.52.923c.33.33 2.31 2.25 4.622 3.089 1.282.465 2.673.45 3.735.322l.809-.228.445-.123 2.318-.652c.967-.272 1.77-.5 2.022-.568l.22-.064c.532-.156 1.083-.317 1.744-.317.97 0 1.87.37 2.507 1.019 1.509 1.504.968 3.37.707 4.268l-.056.199c-.135.483-.734 2.613-1.23 4.36 0 0-.464 3.053.348 5.625.81 2.567 3.36 4.338 3.372 4.346l.345.193.2.115c1.598.892 3.513 1.968 3.94 2.21l.208.114c.81.447 2.497 1.376 2.497 3.5 0 2.112-1.671 3.042-2.475 3.489"/></g></g><g clip-path="url(#gf)" transform="matrix(1.33333 0 0 -1.33333 -42.758 606.488)"><path d="M68.074 439.682c-11.501 0-20.822-9.321-20.822-20.822 0-11.5 9.321-20.822 20.822-20.822 11.5 0 20.822 9.322 20.822 20.822 0 11.501-9.321 20.823-20.82 20.822h-.002"/></g><g clip-path="url(#gg)" opacity=".3" transform="matrix(1.33333 0 0 -1.33333 -42.758 606.488)"><g clip-path="url(#gh)"><g mask="url(#gi)"><path d="M59.15 410.494c-3.725 3.518-5.087 8.318-4.451 11.798a4.498 4.498 0 01-1.559-1.067c-2.798-2.961-2.112-10.155 2.973-14.96 5.085-4.805 12.644-5.398 15.442-2.438.759.803 1.172 1.853 1.275 3.052-3.485-1.465-9.441-.388-13.68 3.615"/></g></g></g><g clip-path="url(#gj)" opacity=".1" transform="matrix(1.33333 0 0 -1.33333 -42.758 606.488)"><path d="M63.618 438.82c12.873 0 23.31-10.437 23.31-23.31 0-2.824-.504-5.531-1.424-8.037a20.723 20.723 0 013.392 11.387c0 11.5-9.323 20.823-20.822 20.822-2.153 0-4.229-.326-6.183-.932.571.042 1.145.07 1.727.07"/></g><path d="M54.087 15.508a33.402 33.402 0 00-12.156-.005c.004-.26.092-.556.276-.878.047-.089.11-.198.18-.325.05-.085.103-.177.156-.276.304-.548.739-1.317 1.212-2.16 1.19-2.127 2.628-4.696 2.957-5.279.514-.918.798-1.542 1.294-1.542.502 0 .78.624 1.294 1.542.328.583 1.772 3.152 2.963 5.279.156.283.312.555.456.813.092.163.184.324.265.474l.826 1.474c.185.322.272.623.277.883"/><g clip-path="url(#gk)" opacity=".5" transform="matrix(1.33333 0 0 -1.33333 -42.758 606.488)"><path d="M72.634 443.235a25.052 25.052 0 01-9.117.004c.003.195.069.417.207.658.035.067.083.149.135.244.038.064.077.133.117.207.228.41.554.988.909 1.62a5.96 5.96 0 013.188-.92c1.174 0 2.266.339 3.193.92.117-.212.234-.416.342-.61.069-.122.134-.243.199-.355l.619-1.106c.139-.241.204-.467.208-.662"/></g><path d="M54.087 80.504c-.005.26-.092.56-.277.884l-.162.288c-.03.052-.058.11-.09.168-.055.092-.111.196-.17.3-.028.053-.064.11-.093.168-.085.15-.17.307-.264.473-.099.174-.203.358-.312.555-.07.116-.132.237-.201.359-.048.08-.095.161-.135.241a3344.31 3344.31 0 01-3.083 5.493c-.514.918-.792 1.536-1.294 1.536-.496 0-.78-.618-1.294-1.536-.334-.6-1.865-3.328-3.077-5.493-.636-1.13-1.19-2.113-1.428-2.552-.184-.324-.272-.619-.276-.879a33.403 33.403 0 0012.156-.005"/><g clip-path="url(#gl)" opacity=".5" transform="matrix(1.33333 0 0 -1.33333 -42.758 606.488)"><path d="M72.634 394.488a1.416 1.416 0 00-.208-.663l-.121-.216c-.022-.04-.047-.083-.068-.126-.041-.07-.083-.147-.127-.225-.021-.04-.048-.083-.07-.126l-.198-.355c-.074-.13-.152-.268-.234-.416-.052-.087-.1-.178-.151-.27a2.734 2.734 0 01-.101-.18l-.09-.156a6.033 6.033 0 01-3.193.919 6.005 6.005 0 01-3.188-.92 4.844 4.844 0 00-.09.157c-.477.848-.893 1.585-1.071 1.914-.138.243-.204.464-.207.659a25.052 25.052 0 019.117.004"/></g><path d="M90.97 48.007c0 .501-.618.78-1.537 1.293-.584.33-3.155 1.773-5.285 2.963-.07.041-.139.08-.207.121-.232.127-.457.255-.676.375-.17.093-.33.185-.48.273-.295.167-.567.317-.79.444-.1.05-.193.104-.278.155l-.324.18c-.33.184-.63.27-.89.277.37-1.97.56-4.003.56-6.081 0-2.082-.19-4.107-.554-6.078.261.007.555.094.884.278.29.161.815.457 1.472.828.15.085.313.17.473.264.262.144.532.3.816.456 2.124 1.19 4.695 2.628 5.28 2.957.918.52 1.535.797 1.535 1.295"/><g clip-path="url(#gm)" opacity=".5" transform="matrix(1.33333 0 0 -1.33333 -42.758 606.488)"><path d="M94.261 418.86c0-1.173.342-2.264.918-3.191l-.155-.091c-.174-.095-.343-.191-.507-.281-.127-.07-.247-.14-.36-.205-.22-.125-.425-.238-.593-.333a4.311 4.311 0 01-.208-.116 34.1 34.1 0 01-.242-.135c-.248-.138-.473-.203-.667-.208a25.041 25.041 0 01.003 9.119c.196-.005.416-.07.664-.208l1.103-.621c.113-.064.235-.128.356-.198.195-.108.398-.225.611-.342a5.965 5.965 0 01-.923-3.19"/></g><path d="M15.507 54.087c-.259-.006-.559-.092-.883-.277-.087-.047-.197-.11-.324-.18-.08-.045-.18-.097-.277-.155-.092-.052-.19-.104-.294-.168-.065-.033-.133-.076-.204-.109-.478-.27-1.049-.588-1.66-.935-2.128-1.19-4.696-2.634-5.28-2.964-.918-.513-1.544-.79-1.544-1.293 0-.497.626-.773 1.543-1.293.585-.33 3.153-1.767 5.28-2.959.283-.153.553-.31.813-.456.163-.09.323-.184.474-.264l.554-.312c.06-.03.11-.063.167-.093.319-.179.579-.323.752-.422.324-.185.619-.27.877-.277a33.374 33.374 0 00-.553 6.076c0 2.079.19 4.112.559 6.081"/><g clip-path="url(#gn)" opacity=".5" transform="matrix(1.33333 0 0 -1.33333 -42.758 606.488)"><path d="M43.699 414.3a1.428 1.428 0 00-.662.208l-.243.135c-.06.034-.135.073-.208.116-.07.04-.142.078-.22.126-.05.025-.1.057-.153.082-.36.203-.787.441-1.246.701a6.008 6.008 0 010 6.382c.212.115.415.232.61.342.125.068.242.134.355.198l.416.234c.044.022.082.047.125.07.239.134.434.242.564.316.243.14.464.203.658.208a25.03 25.03 0 01-.415-4.557c0-1.559.142-3.084.419-4.56"/></g><path d="M78.211 19.632c-.18.646-.982 3.488-1.64 5.826-.376 1.352-.71 2.535-.854 3.044-.104.36-.248.63-.44.82a32.979 32.979 0 00-8.588-8.588c.19-.185.462-.329.821-.433.063-.017.137-.04.225-.063.08-.022.179-.046.276-.076.498-.144 1.19-.34 1.976-.56.184-.052.368-.104.567-.156 2.344-.664 5.185-1.46 5.832-1.645 1.012-.284 1.645-.527 1.997-.173.354.353.116.986-.172 2.004"/><g clip-path="url(#go)" opacity=".5" transform="matrix(1.33333 0 0 -1.33333 -42.758 606.488)"><path d="M89.497 435.772c-.282-1.014-.533-1.901-.641-2.283-.077-.269-.186-.472-.33-.614a24.761 24.761 0 01-6.44 6.44c.143.139.346.247.615.325.048.013.104.03.169.047.06.018.135.035.208.057.373.108.892.256 1.48.421.14.038.283.081.426.121v-.005a5.995 5.995 0 014.513-4.509"/></g><path d="M29.328 75.284c-.184.179-.456.328-.82.432-.133.035-.307.088-.52.152-.097.02-.201.05-.317.085-.236.064-.503.138-.791.22-.145.04-.296.086-.452.127-.305.092-.635.184-.97.277-2.35.658-5.185 1.456-5.826 1.634-1.017.29-1.653.533-2.004.173-.353-.35-.11-.987.172-1.997a1568.888 1568.888 0 011.819-6.463c.145-.515.277-.995.393-1.397.121-.439.225-.792.29-1.018.105-.357.247-.629.433-.82a33.25 33.25 0 008.593 8.595"/><g clip-path="url(#gp)" opacity=".5" transform="matrix(1.33333 0 0 -1.33333 -42.758 606.488)"><path d="M54.065 398.403c-.138-.134-.342-.246-.615-.324-.1-.026-.23-.066-.39-.114a2.892 2.892 0 01-.239-.064 41.532 41.532 0 01-.592-.165c-.11-.03-.223-.064-.34-.095a37.429 37.429 0 00-.727-.208 6.01 6.01 0 01-1.607 2.91 5.956 5.956 0 01-2.907 1.604c.048.165.092.32.134.476.11.386.209.746.296 1.048.09.329.168.594.216.763.08.268.187.472.326.615a24.938 24.938 0 016.445-6.446"/></g><path d="M29.323 20.735a32.994 32.994 0 00-8.588 8.586c-.191-.189-.336-.46-.44-.818-.1-.347-.283-1.018-.514-1.838-.057-.201-.116-.414-.185-.64-.047-.185-.104-.374-.156-.566-.657-2.339-1.461-5.18-1.64-5.827-.283-1.017-.525-1.65-.172-2.004.35-.353.987-.11 2.004.173.641.183 3.483.982 5.827 1.639.19.059.38.11.565.161 1.11.314 2.045.579 2.479.7.356.104.628.248.82.434"/><g clip-path="url(#gq)" opacity=".5" transform="matrix(1.33333 0 0 -1.33333 -42.758 606.488)"><path d="M54.06 439.315a24.746 24.746 0 01-6.44-6.44c-.144.142-.253.345-.33.614-.075.26-.213.763-.386 1.378-.043.15-.087.31-.139.48-.035.139-.078.28-.117.425a5.991 5.991 0 014.514 4.514c.143-.04.285-.083.424-.121l1.86-.525c.266-.078.47-.186.614-.325"/></g><path d="M78.384 78.384c-.354.36-.987.116-1.999-.173-.645-.179-3.487-.98-5.832-1.64-.197-.05-.381-.104-.567-.156-.72-.201-1.362-.388-1.846-.519-.1-.029-.192-.058-.27-.076-.148-.04-.264-.074-.36-.104-.36-.104-.63-.249-.82-.44a32.994 32.994 0 008.587-8.586c.19.19.336.461.44.82.143.513.477 1.698.853 3.05.666 2.343 1.46 5.18 1.642 5.82.288 1.018.524 1.652.172 2.004"/><g clip-path="url(#gr)" opacity=".5" transform="matrix(1.33333 0 0 -1.33333 -42.758 606.488)"><path d="M89.497 401.947a5.982 5.982 0 01-4.513-4.51v-.004c-.143.039-.286.083-.425.12-.541.153-1.022.292-1.385.39-.075.023-.144.045-.203.058-.11.03-.197.056-.27.078-.27.078-.472.186-.615.33a24.73 24.73 0 016.44 6.44c.144-.143.253-.346.33-.615.108-.386.359-1.274.64-2.287"/></g><path d="M54.087 15.508a33.402 33.402 0 00-12.156-.005c.004-.26.092-.556.276-.878.047-.089.11-.198.18-.325.05-.085.103-.177.156-.276.304-.548.739-1.317 1.212-2.16 1.19-2.127 2.628-4.696 2.957-5.279.514-.918.798-1.542 1.294-1.542.502 0 .78.624 1.294 1.542.328.583 1.772 3.152 2.963 5.279.156.283.312.555.456.813.092.163.184.324.265.474l.826 1.474c.185.322.272.623.277.883"/><g clip-path="url(#gs)" opacity=".5" transform="matrix(1.33333 0 0 -1.33333 -42.758 606.488)"><g clip-path="url(#gt)"><path d="M72.634 443.235a25.052 25.052 0 01-9.117.004c.003.195.068.417.207.658.035.066.083.148.134.244.039.064.078.133.118.207.228.411.553.987.909 1.62a5.958 5.958 0 013.188-.919 5.99 5.99 0 013.193.919c.116-.212.234-.416.342-.61.069-.122.134-.243.199-.356l.619-1.105c.139-.241.204-.467.208-.662"/></g></g><path d="M54.087 80.504c-.005.26-.092.56-.277.884l-.162.288c-.03.052-.058.11-.09.168-.055.092-.111.196-.17.3-.028.053-.064.11-.093.168-.085.15-.17.307-.264.473-.099.174-.203.358-.312.555-.07.116-.132.237-.201.359-.048.08-.095.161-.135.241a3344.31 3344.31 0 01-3.083 5.493c-.514.918-.792 1.536-1.294 1.536-.496 0-.78-.618-1.294-1.536-.334-.6-1.865-3.328-3.077-5.493-.636-1.13-1.19-2.113-1.428-2.552-.184-.324-.272-.619-.276-.879a33.403 33.403 0 0012.156-.005"/><g clip-path="url(#gu)" opacity=".5" transform="matrix(1.33333 0 0 -1.33333 -42.758 606.488)"><g clip-path="url(#gv)"><path d="M72.634 394.488a1.413 1.413 0 00-.208-.663l-.121-.216c-.022-.039-.048-.083-.069-.126-.04-.069-.082-.148-.126-.226-.021-.039-.048-.082-.07-.126l-.199-.354-.233-.416c-.052-.087-.1-.178-.151-.269a2.734 2.734 0 01-.101-.181c-.031-.052-.06-.105-.09-.157a5.993 5.993 0 01-6.381 0l-.091.157c-.477.848-.893 1.585-1.07 1.914-.139.243-.204.464-.207.659a24.963 24.963 0 014.556-.416c1.559 0 3.083.142 4.561.42"/></g></g><g><path d="M90.97 48.007c0 .501-.618.78-1.537 1.293-.584.33-3.155 1.773-5.285 2.963-.07.041-.139.08-.207.121-.232.127-.457.255-.676.375-.17.093-.33.185-.48.273-.295.167-.567.317-.79.444-.1.05-.193.104-.278.155l-.324.18c-.33.184-.63.27-.89.277.37-1.97.56-4.003.56-6.081 0-2.082-.19-4.107-.554-6.078.261.007.555.094.884.278.29.161.815.457 1.472.828.15.085.313.17.473.264.262.144.532.3.816.456 2.124 1.19 4.695 2.628 5.28 2.957.918.52 1.535.797 1.535 1.295"/></g><g><g clip-path="url(#gw)" opacity=".5" transform="matrix(1.33333 0 0 -1.33333 -42.758 606.488)"><g clip-path="url(#gx)"><path d="M94.261 418.861c0-1.174.343-2.265.918-3.193l-.155-.09c-.173-.095-.343-.191-.507-.282a15.015 15.015 0 01-.36-.204c-.22-.125-.425-.238-.593-.333a4.311 4.311 0 01-.208-.116c-.096-.053-.177-.1-.242-.135-.248-.138-.473-.203-.667-.208a24.73 24.73 0 01.419 4.561c0 1.56-.142 3.08-.415 4.557.195-.004.415-.069.663-.208l1.103-.62c.114-.064.235-.129.356-.198.195-.108.398-.225.611-.342a5.976 5.976 0 01-.923-3.189"/></g></g></g><g><path d="M15.507 54.087c-.259-.006-.559-.092-.883-.277-.087-.047-.197-.11-.324-.18-.08-.045-.18-.097-.277-.155-.092-.052-.19-.104-.294-.168-.065-.033-.133-.076-.204-.109-.478-.27-1.049-.588-1.66-.935-2.128-1.19-4.696-2.634-5.28-2.964-.918-.513-1.544-.79-1.544-1.293 0-.497.626-.773 1.543-1.293.585-.33 3.153-1.767 5.28-2.959.283-.153.553-.31.813-.456.163-.09.323-.184.474-.264l.554-.312c.06-.03.11-.063.167-.093.319-.179.579-.323.752-.422.324-.185.619-.27.877-.277a33.374 33.374 0 00-.553 6.076c0 2.079.19 4.112.559 6.081"/></g><g><g clip-path="url(#gy)" opacity=".5" transform="matrix(1.33333 0 0 -1.33333 -42.758 606.488)"><g clip-path="url(#gz)"><path d="M43.699 414.3c-.195.005-.42.07-.662.208l-.244.135c-.059.034-.134.073-.208.116-.068.039-.142.078-.22.126-.048.026-.099.057-.152.082-.359.203-.788.442-1.247.701a5.999 5.999 0 010 6.382c.213.116.416.233.611.342.125.068.242.134.355.198l.416.235c.044.021.082.047.125.069l.564.316c.242.139.463.204.658.208a25.03 25.03 0 01.004-9.118"/></g></g></g><g><path d="M78.211 19.632c-.18.646-.982 3.488-1.64 5.826-.376 1.352-.71 2.535-.854 3.044-.104.36-.248.63-.44.82a32.979 32.979 0 00-8.588-8.588c.19-.185.462-.329.821-.433.063-.017.137-.04.225-.063.08-.022.179-.046.276-.076.498-.144 1.19-.34 1.976-.56.184-.052.368-.104.567-.156 2.344-.664 5.185-1.46 5.832-1.645 1.012-.284 1.645-.527 1.997-.173.354.353.116.986-.172 2.004"/></g><g><g clip-path="url(#gA)" opacity=".5" transform="matrix(1.33333 0 0 -1.33333 -42.758 606.488)"><g clip-path="url(#gB)"><path d="M89.497 435.772c-.282-1.014-.533-1.901-.641-2.283-.078-.269-.186-.472-.33-.614a24.746 24.746 0 01-6.441 6.44c.144.139.347.247.616.325.048.013.103.03.169.047.06.018.134.035.207.057.373.108.892.256 1.482.421.138.038.281.081.425.121v-.005a5.995 5.995 0 014.513-4.509"/></g></g></g><g><path d="M29.328 75.284c-.184.179-.456.328-.82.432-.133.035-.307.088-.52.152-.097.02-.201.05-.317.085-.236.064-.503.138-.791.22-.145.04-.296.086-.452.127-.305.092-.635.184-.97.277-2.35.658-5.185 1.456-5.826 1.634-1.017.29-1.653.533-2.004.173-.353-.35-.11-.987.172-1.997a1568.888 1568.888 0 011.819-6.463c.145-.515.277-.995.393-1.397.121-.439.225-.792.29-1.018.105-.357.247-.629.433-.82a33.25 33.25 0 008.593 8.595"/></g><g><g clip-path="url(#gC)" opacity=".5" transform="matrix(1.33333 0 0 -1.33333 -42.758 606.488)"><g clip-path="url(#gD)"><path d="M54.064 398.403c-.137-.134-.341-.246-.614-.324-.1-.026-.23-.066-.39-.114a60.534 60.534 0 01-.832-.229c-.108-.03-.222-.065-.338-.095a31.483 31.483 0 00-.727-.208 6.026 6.026 0 01-1.607 2.911 5.973 5.973 0 01-2.907 1.603c.048.165.092.321.134.475.108.387.208.746.294 1.049.092.329.17.594.217.763.079.267.186.472.325.615a24.953 24.953 0 016.445-6.446"/></g></g></g><g><path d="M29.323 20.735a32.994 32.994 0 00-8.588 8.586c-.191-.189-.336-.46-.44-.818-.1-.347-.283-1.018-.514-1.838-.057-.201-.116-.414-.185-.64-.047-.185-.104-.374-.156-.566-.657-2.339-1.461-5.18-1.64-5.827-.283-1.017-.525-1.65-.172-2.004.35-.353.987-.11 2.004.173.641.183 3.483.982 5.827 1.639.19.059.38.11.565.161 1.11.314 2.045.579 2.479.7.356.104.628.248.82.434"/></g><g><g clip-path="url(#gE)" opacity=".5" transform="matrix(1.33333 0 0 -1.33333 -42.758 606.488)"><g clip-path="url(#gF)"><path d="M54.061 439.315a24.75 24.75 0 01-6.442-6.44c-.142.142-.252.345-.328.614-.075.26-.214.762-.386 1.378-.044.151-.088.311-.139.48-.035.139-.078.281-.117.425a6 6 0 014.514 4.514c.142-.04.285-.083.424-.121.831-.235 1.533-.434 1.859-.525.267-.078.471-.186.615-.325"/></g></g></g><g><path d="M78.384 78.384c-.354.36-.987.116-1.999-.173-.645-.179-3.487-.98-5.832-1.64-.197-.05-.381-.104-.567-.156-.72-.201-1.362-.388-1.846-.519-.1-.029-.192-.058-.27-.076-.148-.04-.264-.074-.36-.104-.36-.104-.63-.249-.82-.44a32.994 32.994 0 008.587-8.586c.19.19.336.461.44.82.143.513.477 1.698.853 3.05.666 2.343 1.46 5.18 1.642 5.82.288 1.018.524 1.652.172 2.004"/></g><g><g clip-path="url(#gG)" opacity=".5" transform="matrix(1.33333 0 0 -1.33333 -42.758 606.488)"><g clip-path="url(#gH)"><path d="M89.497 401.947a5.982 5.982 0 01-4.513-4.509v-.005c-.144.039-.287.083-.425.121-.542.152-1.023.291-1.386.39-.074.021-.144.044-.203.056l-.269.079c-.269.078-.472.186-.616.33a24.715 24.715 0 016.441 6.44c.144-.143.252-.347.33-.615.108-.386.359-1.275.641-2.287"/></g></g></g></svg><svg viewBox="0 0 512 512" id="telegram" xmlns="http://www.w3.org/2000/svg"><path d="M470.435 45.423L16.827 221.249c-18.254 8.188-24.428 24.585-4.412 33.484l116.37 37.173 281.368-174.79c15.363-10.973 31.091-8.047 17.557 4.024L186.053 341.075l-7.591 93.076c7.031 14.371 19.905 14.438 28.117 7.295l66.858-63.589 114.505 86.187c26.595 15.826 41.066 5.613 46.788-23.394l75.105-357.47c7.798-35.705-5.5-51.437-39.4-37.757z"/></svg><svg viewBox="0 0 64 64" id="vk" xmlns="http://www.w3.org/2000/svg"><style>.ist13{fill:#5181b8}</style><path class="ist13" d="M4 13.9h7.1c.9 0 1.6.6 1.9 1.4.9 2.6 2.9 8.3 5.2 12.2 3.1 5.1 5.1 7 6.4 6.8 1.3-.3.9-3.7.9-6.4s.3-7.3-1-9.4l-2-2.9a1 1 0 01.8-1.6h11.4c1.1 0 2 .9 2 2v14.5s.5 2.6 3.3-.1 5.8-7.7 8.3-12.8l1-2.4c.3-.7 1-1.2 1.8-1.2h7.4c1.4 0 2.4 1.4 1.9 2.7l-.8 2.1s-2.7 5.4-5.5 9.2c-2.8 3.9-3.4 4.8-3 5.8.4 1 7.6 7.7 9.4 10.9.5.9.9 1.7 1.3 2.4.7 1.3-.3 3-1.8 3h-8.4c-.7 0-1.4-.4-1.7-1l-.8-1.3s-5.1-6-8.2-7.9c-3.2-1.8-3.1.8-3.1.8V46c0 2.2-1.8 4-4 4h-2s-11 0-19.8-13.1C5.1 26.7 2.8 20.1 2 16.3c-.2-1.2.7-2.4 2-2.4z" id="iLayer_11"/></svg><svg viewBox="0 0 20 20" id="works" xmlns="http://www.w3.org/2000/svg"><path d="M5.375 3.065c3.3-2.2 7.699-1.766 10.516 1.033a8.34 8.34 0 01-4.284 14.076 8.324 8.324 0 01-9.308-5A8.329 8.329 0 015.375 3.065zm7.54 3.808a.461.461 0 00-.349-.025l-4.117 1.3a.436.436 0 00-.291.3l-1.31 4.117a.454.454 0 00.227.533.45.45 0 00.357.042l4.118-1.3a.453.453 0 00.299-.292l1.291-4.116a.404.404 0 000-.284.458.458 0 00-.225-.275z"/></svg></svg>