<svg width="20" height="20" viewBox="0 0 20 20" xmlns="http://www.w3.org/2000/svg">
<path d="M8.20705 12.9582C9.40677 12.8615 10.612 12.8615 11.8117 12.9582C12.4651 12.9963 13.1153 13.078 13.7583 13.2029C15.1497 13.4846 16.0581 13.9443 16.4474 14.6857C16.7398 15.2643 16.7398 15.9531 16.4474 16.5317C16.0581 17.2731 15.1857 17.7625 13.7439 18.0145C13.1014 18.1441 12.451 18.2283 11.7973 18.2666C11.1917 18.3333 10.5861 18.3333 9.97335 18.3333H8.87031C8.63961 18.3037 8.41612 18.2889 8.19984 18.2889C7.54614 18.2552 6.89563 18.1735 6.25331 18.0442C4.8619 17.7773 3.95351 17.3028 3.56421 16.5614C3.41392 16.2742 3.33469 15.9534 3.33342 15.6272C3.33037 15.2991 3.40721 14.9754 3.557 14.6857C3.9391 13.9443 4.84748 13.4623 6.25331 13.2029C6.89846 13.0762 7.55119 12.9945 8.20705 12.9582ZM10.0022 1.66667C12.419 1.66667 14.3783 3.68152 14.3783 6.16697C14.3783 8.65241 12.419 10.6673 10.0022 10.6673C7.58533 10.6673 5.62609 8.65241 5.62609 6.16697C5.62609 3.68152 7.58533 1.66667 10.0022 1.66667Z"/>
</svg>
