<svg width="20" height="20" viewBox="0 0 20 20" xmlns="http://www.w3.org/2000/svg">
<path d="M12.5582 1.66676C14.8166 1.66676 16.6416 2.55843 16.6666 4.8251V17.4751C16.6666 17.6168 16.6332 17.7584 16.5666 17.8834C16.4582 18.0834 16.2749 18.2334 16.0499 18.3001C15.8332 18.3668 15.5916 18.3334 15.3916 18.2168L9.99155 15.5168L4.58322 18.2168C4.45905 18.2826 4.31655 18.3251 4.17489 18.3251C3.70822 18.3251 3.33322 17.9418 3.33322 17.4751V4.8251C3.33322 2.55843 5.16655 1.66676 7.41655 1.66676H12.5582ZM13.1249 6.7001H6.84989C6.49155 6.7001 6.19989 6.99176 6.19989 7.35843C6.19989 7.72426 6.49155 8.01676 6.84989 8.01676H13.1249C13.4832 8.01676 13.7749 7.72426 13.7749 7.35843C13.7749 6.99176 13.4832 6.7001 13.1249 6.7001Z"/>
</svg>
