<?xml version="1.0" ?><svg id="Layer_1_1_" style="enable-background:new 0 0 64 64;" version="1.1" viewBox="0 0 64 64" xml:space="preserve" xmlns="http://www.w3.org/2000/svg" xmlns:xlink="http://www.w3.org/1999/xlink"><path d="M19.947,38.533l-5.24-5.24l-1.414,1.414l6,6C19.48,40.895,19.735,41,20,41c0.012,0,0.023,0,0.036-0.001  c0.277-0.01,0.538-0.135,0.72-0.344l13-15l-1.512-1.311L19.947,38.533z"/><path d="M22.871,11c-11.598,0-21,9.402-21,21c0,9.511,6.328,17.536,15,20.119V57h2v5h8v-5h2v-4.881c8.672-2.583,15-10.607,15-20.119  C43.871,20.402,34.469,11,22.871,11z M22.871,48c-8.837,0-16-7.163-16-16s7.163-16,16-16s16,7.163,16,16S31.708,48,22.871,48z"/><path d="M55.871,29c0,1.657,1.343,3,3,3s3-1.343,3-3V17h-6V29z"/><path d="M54.871,29V2h-23v9.933c2.252,1.014,4.302,2.394,6.076,4.067h13.924v2H39.829c0.775,0.937,1.469,1.942,2.082,3h9.96v2  h-8.933c0.435,0.965,0.801,1.967,1.094,3h7.839v2H44.5c0.24,1.298,0.371,2.634,0.371,4h11.726C55.569,31.39,54.871,30.28,54.871,29z   M42.871,13h-8V6h8V13z M51.871,13h-7v-2h7V13z M51.871,8h-7V6h7V8z"/></svg>