<svg width="20" height="20" viewBox="0 0 20 20" xmlns="http://www.w3.org/2000/svg">
<path d="M13.8912 1.66701C16.7253 1.66701 18.3253 3.27451 18.3337 6.10867V13.892C18.3337 16.7253 16.7253 18.3337 13.8912 18.3337H6.10867C3.27451 18.3337 1.66701 16.7253 1.66701 13.892V6.10867C1.66701 3.27451 3.27451 1.66701 6.10867 1.66701H13.8912ZM10.417 5.10867C10.1828 4.96701 9.89951 4.96701 9.67534 5.10867C9.44951 5.24951 9.32534 5.50867 9.34951 5.76701V14.2587C9.39201 14.617 9.69117 14.8837 10.0412 14.8837C10.4003 14.8837 10.6995 14.617 10.7328 14.2587V5.76701C10.7662 5.50867 10.642 5.24951 10.417 5.10867ZM6.52534 7.84201C6.30034 7.70034 6.01617 7.70034 5.79201 7.84201C5.56617 7.98367 5.44201 8.24117 5.46701 8.50034V14.2587C5.49951 14.617 5.79951 14.8837 6.15784 14.8837C6.51701 14.8837 6.81617 14.617 6.84951 14.2587V8.50034C6.87534 8.24117 6.74951 7.98367 6.52534 7.84201ZM14.2412 10.867C14.017 10.7253 13.7337 10.7253 13.5003 10.867C13.2745 11.0087 13.1503 11.2578 13.1837 11.5253V14.2587C13.217 14.617 13.5162 14.8837 13.8753 14.8837C14.2253 14.8837 14.5245 14.617 14.567 14.2587V11.5253C14.5912 11.2578 14.467 11.0087 14.2412 10.867Z"/>
</svg>
