<svg width="20" height="20" viewBox="0 0 20 20" xmlns="http://www.w3.org/2000/svg">
<path d="M5.37458 3.06508C8.67458 0.865079 13.0737 1.29925 15.8912 4.09841C17.4654 5.67425 18.3404 7.80675 18.3321 10.0317C18.3162 13.9984 15.4987 17.4067 11.6071 18.1742C7.70708 18.9409 3.80791 16.8484 2.29875 13.1742C0.782078 9.50675 2.06625 5.27341 5.37458 3.06508ZM12.9154 6.87341C12.8079 6.82341 12.6821 6.80675 12.5662 6.84841L8.44875 8.14841C8.30708 8.19008 8.19875 8.30675 8.15791 8.44841L6.84874 12.5651C6.82374 12.6484 6.82374 12.7401 6.84874 12.8234C6.88208 12.9401 6.96624 13.0401 7.07458 13.0984C7.19041 13.1651 7.31624 13.1742 7.43208 13.1401L11.5496 11.8401C11.6912 11.7984 11.7996 11.6901 11.8487 11.5484L13.1404 7.43175C13.1746 7.34091 13.1746 7.24008 13.1404 7.14841C13.1079 7.03175 13.0237 6.93175 12.9154 6.87341Z"/>
</svg>
